# xmcd
#
# Track frame offsets:
#	150
#	27410
#	82562
#	113245
#	144727
#	191167
#	220325
#
# Disc length: 3264 seconds
#
# Revision: 1
# Processed by: cddbd v1.5.2PL0 Copyright (c) Steve Scherf et al.
# Submitted via: audiograbber 1.83.01
#
DISCID=5e0cbe07
DTITLE=Grateful Dead - 93-06-11 Buckeye Lake Music Centre, Hebron OH
DYEAR=1900
DGENRE=
TTITLE0=Jack Straw
TTITLE1=Foolish Heart
TTITLE2=Same Thing
TTITLE3=Lazy River Road
TTITLE4=Tom Thumb's Blues > When I Paint My Masterpiece
TTITLE5=So Many Roads
TTITLE6=Promised Land
EXTD=
EXTT0=
EXTT1=
EXTT2=
EXTT3=
EXTT4=
EXTT5=
EXTT6=
PLAYORDER=
